<mxfile host="app.diagrams.net" agent="Mozilla/5.0 (Windows NT 10.0; Win64; x64) AppleWebKit/537.36 (KHTML, like Gecko) Chrome/131.0.0.0 Safari/537.36" version="24.9.0">
  <diagram id="R2lEEEUBdFMjLlhIrx00" name="Page-1">
    <mxGraphModel dx="649" dy="1854" grid="1" gridSize="10" guides="1" tooltips="1" connect="1" arrows="1" fold="1" page="1" pageScale="1" pageWidth="850" pageHeight="1100" math="0" shadow="0" extFonts="Permanent Marker^https://fonts.googleapis.com/css?family=Permanent+Marker">
      <root>
        <mxCell id="0" />
        <mxCell id="1" parent="0" />
        <mxCell id="pc8Oi7HU2OhGXvztp1S3-3" value="Judet" style="rounded=1;whiteSpace=wrap;html=1;" vertex="1" parent="1">
          <mxGeometry x="240" y="50" width="120" height="60" as="geometry" />
        </mxCell>
        <mxCell id="pc8Oi7HU2OhGXvztp1S3-4" value="Tara" style="rounded=1;whiteSpace=wrap;html=1;" vertex="1" parent="1">
          <mxGeometry x="70" y="50" width="120" height="60" as="geometry" />
        </mxCell>
        <mxCell id="pc8Oi7HU2OhGXvztp1S3-5" value="UAT" style="rounded=1;whiteSpace=wrap;html=1;" vertex="1" parent="1">
          <mxGeometry x="400" y="50" width="120" height="60" as="geometry" />
        </mxCell>
        <mxCell id="pc8Oi7HU2OhGXvztp1S3-6" value="Market" style="rounded=1;whiteSpace=wrap;html=1;" vertex="1" parent="1">
          <mxGeometry x="560" y="80" width="120" height="60" as="geometry" />
        </mxCell>
        <mxCell id="pc8Oi7HU2OhGXvztp1S3-7" value="tip_market" style="rounded=1;whiteSpace=wrap;html=1;" vertex="1" parent="1">
          <mxGeometry x="560" y="-80" width="120" height="60" as="geometry" />
        </mxCell>
        <mxCell id="pc8Oi7HU2OhGXvztp1S3-9" value="clienti" style="rounded=1;whiteSpace=wrap;html=1;" vertex="1" parent="1">
          <mxGeometry x="340" y="200" width="120" height="60" as="geometry" />
        </mxCell>
        <mxCell id="pc8Oi7HU2OhGXvztp1S3-10" value="Persoane" style="rounded=1;whiteSpace=wrap;html=1;" vertex="1" parent="1">
          <mxGeometry x="120" y="200" width="120" height="60" as="geometry" />
        </mxCell>
        <mxCell id="pc8Oi7HU2OhGXvztp1S3-11" value="stoc" style="rounded=1;whiteSpace=wrap;html=1;" vertex="1" parent="1">
          <mxGeometry x="1050" y="200" width="120" height="60" as="geometry" />
        </mxCell>
        <mxCell id="pc8Oi7HU2OhGXvztp1S3-12" value="produse" style="rounded=1;whiteSpace=wrap;html=1;" vertex="1" parent="1">
          <mxGeometry x="1050" y="80" width="120" height="60" as="geometry" />
        </mxCell>
        <mxCell id="pc8Oi7HU2OhGXvztp1S3-13" value="tip_produs" style="rounded=1;whiteSpace=wrap;html=1;" vertex="1" parent="1">
          <mxGeometry x="1230" y="80" width="120" height="60" as="geometry" />
        </mxCell>
        <mxCell id="pc8Oi7HU2OhGXvztp1S3-14" value="ffurnizor" style="rounded=1;whiteSpace=wrap;html=1;" vertex="1" parent="1">
          <mxGeometry x="1050" y="330" width="120" height="60" as="geometry" />
        </mxCell>
        <mxCell id="pc8Oi7HU2OhGXvztp1S3-15" value="tip_furnizor" style="rounded=1;whiteSpace=wrap;html=1;" vertex="1" parent="1">
          <mxGeometry x="1250" y="330" width="120" height="60" as="geometry" />
        </mxCell>
        <mxCell id="pc8Oi7HU2OhGXvztp1S3-18" value="" style="fontSize=12;html=1;endArrow=ERoneToMany;rounded=0;startSize=8;endSize=8;entryX=0;entryY=0.5;entryDx=0;entryDy=0;exitX=1;exitY=0.5;exitDx=0;exitDy=0;" edge="1" parent="1" source="pc8Oi7HU2OhGXvztp1S3-5" target="pc8Oi7HU2OhGXvztp1S3-6">
          <mxGeometry width="100" height="100" relative="1" as="geometry">
            <mxPoint x="420" y="110" as="sourcePoint" />
            <mxPoint x="520" y="10" as="targetPoint" />
          </mxGeometry>
        </mxCell>
        <mxCell id="pc8Oi7HU2OhGXvztp1S3-22" value="" style="edgeStyle=entityRelationEdgeStyle;fontSize=12;html=1;endArrow=ERoneToMany;rounded=0;startSize=8;endSize=8;curved=1;exitX=1;exitY=0.5;exitDx=0;exitDy=0;entryX=0;entryY=0.5;entryDx=0;entryDy=0;" edge="1" parent="1" source="pc8Oi7HU2OhGXvztp1S3-4" target="pc8Oi7HU2OhGXvztp1S3-3">
          <mxGeometry width="100" height="100" relative="1" as="geometry">
            <mxPoint x="200" y="80" as="sourcePoint" />
            <mxPoint x="300" y="-20" as="targetPoint" />
          </mxGeometry>
        </mxCell>
        <mxCell id="pc8Oi7HU2OhGXvztp1S3-23" value="" style="edgeStyle=entityRelationEdgeStyle;fontSize=12;html=1;endArrow=ERoneToMany;rounded=0;startSize=8;endSize=8;curved=1;exitX=1;exitY=0.5;exitDx=0;exitDy=0;entryX=0;entryY=0.5;entryDx=0;entryDy=0;" edge="1" parent="1" source="pc8Oi7HU2OhGXvztp1S3-3" target="pc8Oi7HU2OhGXvztp1S3-5">
          <mxGeometry width="100" height="100" relative="1" as="geometry">
            <mxPoint x="400" y="410" as="sourcePoint" />
            <mxPoint x="500" y="310" as="targetPoint" />
          </mxGeometry>
        </mxCell>
        <mxCell id="pc8Oi7HU2OhGXvztp1S3-24" value="" style="edgeStyle=entityRelationEdgeStyle;fontSize=12;html=1;endArrow=ERmandOne;startArrow=ERmandOne;rounded=0;startSize=8;endSize=8;curved=1;exitX=1;exitY=0.5;exitDx=0;exitDy=0;entryX=0;entryY=0.5;entryDx=0;entryDy=0;" edge="1" parent="1" source="pc8Oi7HU2OhGXvztp1S3-10" target="pc8Oi7HU2OhGXvztp1S3-9">
          <mxGeometry width="100" height="100" relative="1" as="geometry">
            <mxPoint x="250" y="230" as="sourcePoint" />
            <mxPoint x="330" y="260" as="targetPoint" />
            <Array as="points">
              <mxPoint x="260" y="220" />
            </Array>
          </mxGeometry>
        </mxCell>
        <mxCell id="pc8Oi7HU2OhGXvztp1S3-26" value="bon" style="rounded=1;whiteSpace=wrap;html=1;" vertex="1" parent="1">
          <mxGeometry x="630" y="200" width="120" height="60" as="geometry" />
        </mxCell>
        <mxCell id="pc8Oi7HU2OhGXvztp1S3-27" value="clienti_orders" style="rounded=1;whiteSpace=wrap;html=1;" vertex="1" parent="1">
          <mxGeometry x="440" y="300" width="120" height="60" as="geometry" />
        </mxCell>
        <mxCell id="pc8Oi7HU2OhGXvztp1S3-28" value="" style="fontSize=12;html=1;endArrow=ERoneToMany;rounded=0;startSize=8;endSize=8;exitX=0.5;exitY=1;exitDx=0;exitDy=0;entryX=1;entryY=0.5;entryDx=0;entryDy=0;" edge="1" parent="1" source="pc8Oi7HU2OhGXvztp1S3-26" target="pc8Oi7HU2OhGXvztp1S3-27">
          <mxGeometry width="100" height="100" relative="1" as="geometry">
            <mxPoint x="380" y="390" as="sourcePoint" />
            <mxPoint x="480" y="290" as="targetPoint" />
          </mxGeometry>
        </mxCell>
        <mxCell id="pc8Oi7HU2OhGXvztp1S3-29" value="" style="fontSize=12;html=1;endArrow=ERoneToMany;rounded=0;startSize=8;endSize=8;entryX=0;entryY=0.5;entryDx=0;entryDy=0;exitX=0.5;exitY=1;exitDx=0;exitDy=0;" edge="1" parent="1" source="pc8Oi7HU2OhGXvztp1S3-9" target="pc8Oi7HU2OhGXvztp1S3-27">
          <mxGeometry width="100" height="100" relative="1" as="geometry">
            <mxPoint x="290" y="330" as="sourcePoint" />
            <mxPoint x="210" y="350" as="targetPoint" />
          </mxGeometry>
        </mxCell>
        <mxCell id="pc8Oi7HU2OhGXvztp1S3-31" value="" style="edgeStyle=entityRelationEdgeStyle;fontSize=12;html=1;endArrow=ERoneToMany;rounded=0;startSize=8;endSize=8;curved=1;exitX=0;exitY=0.5;exitDx=0;exitDy=0;entryX=1;entryY=0.5;entryDx=0;entryDy=0;" edge="1" parent="1" source="pc8Oi7HU2OhGXvztp1S3-13" target="pc8Oi7HU2OhGXvztp1S3-12">
          <mxGeometry width="100" height="100" relative="1" as="geometry">
            <mxPoint x="1170" y="60" as="sourcePoint" />
            <mxPoint x="1270" y="-40" as="targetPoint" />
          </mxGeometry>
        </mxCell>
        <mxCell id="pc8Oi7HU2OhGXvztp1S3-32" value="" style="edgeStyle=entityRelationEdgeStyle;fontSize=12;html=1;endArrow=ERoneToMany;rounded=0;startSize=8;endSize=8;curved=1;exitX=0;exitY=0.5;exitDx=0;exitDy=0;entryX=1;entryY=0.5;entryDx=0;entryDy=0;" edge="1" parent="1" source="pc8Oi7HU2OhGXvztp1S3-15" target="pc8Oi7HU2OhGXvztp1S3-14">
          <mxGeometry width="100" height="100" relative="1" as="geometry">
            <mxPoint x="1170" y="60" as="sourcePoint" />
            <mxPoint x="1270" y="-40" as="targetPoint" />
          </mxGeometry>
        </mxCell>
        <mxCell id="pc8Oi7HU2OhGXvztp1S3-34" value="" style="fontSize=12;html=1;endArrow=ERoneToMany;rounded=0;startSize=8;endSize=8;exitX=0.5;exitY=1;exitDx=0;exitDy=0;entryX=0.5;entryY=0;entryDx=0;entryDy=0;" edge="1" parent="1" source="pc8Oi7HU2OhGXvztp1S3-12" target="pc8Oi7HU2OhGXvztp1S3-11">
          <mxGeometry width="100" height="100" relative="1" as="geometry">
            <mxPoint x="1170" y="60" as="sourcePoint" />
            <mxPoint x="1270" y="-40" as="targetPoint" />
          </mxGeometry>
        </mxCell>
        <mxCell id="pc8Oi7HU2OhGXvztp1S3-35" value="" style="fontSize=12;html=1;endArrow=ERoneToMany;rounded=0;startSize=8;endSize=8;exitX=0.5;exitY=0;exitDx=0;exitDy=0;entryX=0.5;entryY=1;entryDx=0;entryDy=0;" edge="1" parent="1" source="pc8Oi7HU2OhGXvztp1S3-14" target="pc8Oi7HU2OhGXvztp1S3-11">
          <mxGeometry width="100" height="100" relative="1" as="geometry">
            <mxPoint x="1170" y="60" as="sourcePoint" />
            <mxPoint x="1270" y="-40" as="targetPoint" />
          </mxGeometry>
        </mxCell>
        <mxCell id="pc8Oi7HU2OhGXvztp1S3-36" value="" style="fontSize=12;html=1;endArrow=ERoneToMany;rounded=0;startSize=8;endSize=8;exitX=0.5;exitY=1;exitDx=0;exitDy=0;entryX=0.5;entryY=0;entryDx=0;entryDy=0;" edge="1" parent="1" source="pc8Oi7HU2OhGXvztp1S3-7" target="pc8Oi7HU2OhGXvztp1S3-6">
          <mxGeometry width="100" height="100" relative="1" as="geometry">
            <mxPoint x="720" y="210" as="sourcePoint" />
            <mxPoint x="820" y="110" as="targetPoint" />
          </mxGeometry>
        </mxCell>
        <mxCell id="pc8Oi7HU2OhGXvztp1S3-41" value="market_produse" style="rounded=1;whiteSpace=wrap;html=1;" vertex="1" parent="1">
          <mxGeometry x="800" y="80" width="120" height="60" as="geometry" />
        </mxCell>
        <mxCell id="pc8Oi7HU2OhGXvztp1S3-42" value="" style="edgeStyle=entityRelationEdgeStyle;fontSize=12;html=1;endArrow=ERoneToMany;rounded=0;startSize=8;endSize=8;curved=1;exitX=1;exitY=0.5;exitDx=0;exitDy=0;entryX=0;entryY=0.5;entryDx=0;entryDy=0;" edge="1" parent="1" source="pc8Oi7HU2OhGXvztp1S3-6" target="pc8Oi7HU2OhGXvztp1S3-41">
          <mxGeometry width="100" height="100" relative="1" as="geometry">
            <mxPoint x="730" y="80" as="sourcePoint" />
            <mxPoint x="830" y="-20" as="targetPoint" />
          </mxGeometry>
        </mxCell>
        <mxCell id="pc8Oi7HU2OhGXvztp1S3-43" value="" style="edgeStyle=entityRelationEdgeStyle;fontSize=12;html=1;endArrow=ERoneToMany;rounded=0;startSize=8;endSize=8;curved=1;exitX=0;exitY=0.5;exitDx=0;exitDy=0;entryX=1;entryY=0.5;entryDx=0;entryDy=0;" edge="1" parent="1" source="pc8Oi7HU2OhGXvztp1S3-12" target="pc8Oi7HU2OhGXvztp1S3-41">
          <mxGeometry width="100" height="100" relative="1" as="geometry">
            <mxPoint x="730" y="80" as="sourcePoint" />
            <mxPoint x="830" y="-20" as="targetPoint" />
          </mxGeometry>
        </mxCell>
        <mxCell id="pc8Oi7HU2OhGXvztp1S3-44" value="produse_bon" style="rounded=1;whiteSpace=wrap;html=1;" vertex="1" parent="1">
          <mxGeometry x="840" y="200" width="120" height="60" as="geometry" />
        </mxCell>
        <mxCell id="pc8Oi7HU2OhGXvztp1S3-46" value="" style="edgeStyle=entityRelationEdgeStyle;fontSize=12;html=1;endArrow=ERoneToMany;rounded=0;startSize=8;endSize=8;curved=1;exitX=1;exitY=0.5;exitDx=0;exitDy=0;entryX=0;entryY=0.5;entryDx=0;entryDy=0;" edge="1" parent="1" source="pc8Oi7HU2OhGXvztp1S3-26" target="pc8Oi7HU2OhGXvztp1S3-44">
          <mxGeometry width="100" height="100" relative="1" as="geometry">
            <mxPoint x="890" y="330" as="sourcePoint" />
            <mxPoint x="990" y="230" as="targetPoint" />
          </mxGeometry>
        </mxCell>
        <mxCell id="pc8Oi7HU2OhGXvztp1S3-47" value="" style="fontSize=12;html=1;endArrow=ERoneToMany;rounded=0;startSize=8;endSize=8;exitX=0.75;exitY=1;exitDx=0;exitDy=0;entryX=0.5;entryY=0;entryDx=0;entryDy=0;" edge="1" parent="1" source="pc8Oi7HU2OhGXvztp1S3-41" target="pc8Oi7HU2OhGXvztp1S3-44">
          <mxGeometry width="100" height="100" relative="1" as="geometry">
            <mxPoint x="770" y="290" as="sourcePoint" />
            <mxPoint x="870" y="190" as="targetPoint" />
          </mxGeometry>
        </mxCell>
      </root>
    </mxGraphModel>
  </diagram>
</mxfile>
